{
 "cells": [
  {
   "cell_type": "code",
   "execution_count": 1,
   "id": "ff603c2a",
   "metadata": {},
   "outputs": [],
   "source": [
    "import glob\n",
    "import os\n",
    "import pathlib"
   ]
  },
  {
   "cell_type": "code",
   "execution_count": 2,
   "id": "32270854",
   "metadata": {},
   "outputs": [],
   "source": [
    "import pandas as pd"
   ]
  },
  {
   "cell_type": "code",
   "execution_count": 3,
   "id": "f8151fef",
   "metadata": {},
   "outputs": [],
   "source": [
    "root_dir=os.path.join(\".\",\"cv-corpus-8.0-2022-01-19\",\"th\")"
   ]
  },
  {
   "cell_type": "code",
   "execution_count": 4,
   "id": "7b96346b",
   "metadata": {},
   "outputs": [],
   "source": [
    "pathlib.Path(os.path.join(root_dir,\"wavs\")).mkdir(parents=True, exist_ok=True) "
   ]
  },
  {
   "cell_type": "code",
   "execution_count": 5,
   "id": "b27ddaf6",
   "metadata": {},
   "outputs": [],
   "source": [
    "validated = os.path.join(root_dir,\"validated.tsv\")"
   ]
  },
  {
   "cell_type": "code",
   "execution_count": 6,
   "id": "e0153157",
   "metadata": {},
   "outputs": [],
   "source": [
    "df = pd.read_csv(validated,sep=\"\\t\")"
   ]
  },
  {
   "cell_type": "code",
   "execution_count": 7,
   "id": "b0960e9a",
   "metadata": {},
   "outputs": [],
   "source": [
    "def get_mp3_path(filename):\n",
    "    return os.path.join(root_dir,\"clips\",filename)"
   ]
  },
  {
   "cell_type": "code",
   "execution_count": 8,
   "id": "e5e9a57c",
   "metadata": {},
   "outputs": [],
   "source": [
    "def get_wav_path(filename):\n",
    "    return os.path.join(root_dir,\"wavs\",filename.replace('mp3','wav'))"
   ]
  },
  {
   "cell_type": "code",
   "execution_count": 9,
   "id": "6bd33796",
   "metadata": {},
   "outputs": [
    {
     "data": {
      "text/plain": [
       "'./cv-corpus-8.0-2022-01-19/th/clips/common_voice_th_25695281.mp3'"
      ]
     },
     "execution_count": 9,
     "metadata": {},
     "output_type": "execute_result"
    }
   ],
   "source": [
    "get_mp3_path(df.path[0])"
   ]
  },
  {
   "cell_type": "code",
   "execution_count": 10,
   "id": "0b49f79b",
   "metadata": {},
   "outputs": [
    {
     "name": "stdout",
     "output_type": "stream",
     "text": [
      "ffmpeg version 3.4.8-0ubuntu0.2 Copyright (c) 2000-2020 the FFmpeg developers\r\n",
      "  built with gcc 7 (Ubuntu 7.5.0-3ubuntu1~18.04)\r\n",
      "  configuration: --prefix=/usr --extra-version=0ubuntu0.2 --toolchain=hardened --libdir=/usr/lib/x86_64-linux-gnu --incdir=/usr/include/x86_64-linux-gnu --enable-gpl --disable-stripping --enable-avresample --enable-avisynth --enable-gnutls --enable-ladspa --enable-libass --enable-libbluray --enable-libbs2b --enable-libcaca --enable-libcdio --enable-libflite --enable-libfontconfig --enable-libfreetype --enable-libfribidi --enable-libgme --enable-libgsm --enable-libmp3lame --enable-libmysofa --enable-libopenjpeg --enable-libopenmpt --enable-libopus --enable-libpulse --enable-librubberband --enable-librsvg --enable-libshine --enable-libsnappy --enable-libsoxr --enable-libspeex --enable-libssh --enable-libtheora --enable-libtwolame --enable-libvorbis --enable-libvpx --enable-libwavpack --enable-libwebp --enable-libx265 --enable-libxml2 --enable-libxvid --enable-libzmq --enable-libzvbi --enable-omx --enable-openal --enable-opengl --enable-sdl2 --enable-libdc1394 --enable-libdrm --enable-libiec61883 --enable-chromaprint --enable-frei0r --enable-libopencv --enable-libx264 --enable-shared\r\n",
      "  libavutil      55. 78.100 / 55. 78.100\r\n",
      "  libavcodec     57.107.100 / 57.107.100\r\n",
      "  libavformat    57. 83.100 / 57. 83.100\r\n",
      "  libavdevice    57. 10.100 / 57. 10.100\r\n",
      "  libavfilter     6.107.100 /  6.107.100\r\n",
      "  libavresample   3.  7.  0 /  3.  7.  0\r\n",
      "  libswscale      4.  8.100 /  4.  8.100\r\n",
      "  libswresample   2.  9.100 /  2.  9.100\r\n",
      "  libpostproc    54.  7.100 / 54.  7.100\r\n",
      "\u001b[0;35m[mp3 @ 0x558748f87820] \u001b[0m\u001b[0;33mEstimating duration from bitrate, this may be inaccurate\r\n",
      "\u001b[0mInput #0, mp3, from './cv-corpus-8.0-2022-01-19/th/clips/common_voice_th_25695281.mp3':\r\n",
      "  Metadata:\r\n",
      "    major_brand     : iso5\r\n",
      "    minor_version   : 1\r\n",
      "    compatible_brands: isomiso5hlsf\r\n",
      "    encoder         : Lavf57.56.101\r\n",
      "  Duration: 00:00:03.24, start: 0.000000, bitrate: 48 kb/s\r\n",
      "    Stream #0:0: Audio: mp3, 32000 Hz, mono, s16p, 48 kb/s\r\n",
      "\u001b[4;31mAt least one output file must be specified\r\n",
      "\u001b[0m"
     ]
    }
   ],
   "source": [
    "!ffmpeg -i {get_mp3_path(df.path[0])}"
   ]
  },
  {
   "cell_type": "code",
   "execution_count": 11,
   "id": "558f3f91",
   "metadata": {},
   "outputs": [
    {
     "data": {
      "text/plain": [
       "'./cv-corpus-8.0-2022-01-19/th/wavs/common_voice_th_25695281.wav'"
      ]
     },
     "execution_count": 11,
     "metadata": {},
     "output_type": "execute_result"
    }
   ],
   "source": [
    "get_wav_path(df.path[0])"
   ]
  },
  {
   "cell_type": "code",
   "execution_count": 12,
   "id": "84450b15",
   "metadata": {},
   "outputs": [],
   "source": [
    "mp3_path = get_mp3_path(df.path[0])"
   ]
  },
  {
   "cell_type": "code",
   "execution_count": 13,
   "id": "1792b023",
   "metadata": {},
   "outputs": [],
   "source": [
    "sr = get_wav_path(df.path[0]) "
   ]
  },
  {
   "cell_type": "code",
   "execution_count": 14,
   "id": "41708f3c",
   "metadata": {},
   "outputs": [],
   "source": [
    "# !sox {mp3_path} -r 16000 -c 1 -b 16 {sr}"
   ]
  },
  {
   "cell_type": "code",
   "execution_count": 15,
   "id": "70e0680c",
   "metadata": {},
   "outputs": [],
   "source": [
    "from tqdm import tqdm"
   ]
  },
  {
   "cell_type": "code",
   "execution_count": 16,
   "id": "8d706c12",
   "metadata": {},
   "outputs": [],
   "source": [
    "def run(item):\n",
    "    mp3_path = get_mp3_path(item)\n",
    "    sr = get_wav_path(item)\n",
    "    os.system(\"sox {} -r 16000 -c 1 -b 16 {}\".format(mp3_path,sr))"
   ]
  },
  {
   "cell_type": "code",
   "execution_count": 17,
   "id": "cb9b930b",
   "metadata": {},
   "outputs": [],
   "source": [
    "# run(df.path[0])"
   ]
  },
  {
   "cell_type": "code",
   "execution_count": 18,
   "id": "d5b9175d",
   "metadata": {},
   "outputs": [],
   "source": [
    "import concurrent.futures"
   ]
  },
  {
   "cell_type": "code",
   "execution_count": 19,
   "id": "10ddd95e",
   "metadata": {},
   "outputs": [],
   "source": [
    "import multiprocessing"
   ]
  },
  {
   "cell_type": "code",
   "execution_count": 20,
   "id": "b7d40c1f",
   "metadata": {},
   "outputs": [
    {
     "data": {
      "text/plain": [
       "79"
      ]
     },
     "execution_count": 20,
     "metadata": {},
     "output_type": "execute_result"
    }
   ],
   "source": [
    "multiprocessing.cpu_count()-1"
   ]
  },
  {
   "cell_type": "code",
   "execution_count": 21,
   "id": "833a2be8",
   "metadata": {},
   "outputs": [
    {
     "name": "stderr",
     "output_type": "stream",
     "text": [
      "sox WARN rate: rate clipped 2 samples; decrease volume?\n",
      "sox WARN dither: dither clipped 1 samples; decrease volume?\n",
      "sox WARN rate: rate clipped 1 samples; decrease volume?\n",
      "sox WARN dither: dither clipped 1 samples; decrease volume?\n",
      "sox WARN rate: rate clipped 1 samples; decrease volume?\n",
      "sox WARN dither: dither clipped 1 samples; decrease volume?\n",
      "sox WARN rate: rate clipped 1 samples; decrease volume?\n",
      "sox WARN dither: dither clipped 1 samples; decrease volume?\n",
      "sox WARN rate: rate clipped 22 samples; decrease volume?\n",
      "sox WARN dither: dither clipped 22 samples; decrease volume?\n",
      "sox WARN rate: rate clipped 1 samples; decrease volume?\n",
      "sox WARN dither: dither clipped 1 samples; decrease volume?\n",
      "sox WARN rate: rate clipped 7 samples; decrease volume?\n",
      "sox WARN dither: dither clipped 8 samples; decrease volume?\n",
      "sox WARN rate: rate clipped 1 samples; decrease volume?\n",
      "sox WARN dither: dither clipped 1 samples; decrease volume?\n",
      "sox WARN rate: rate clipped 1 samples; decrease volume?\n",
      "sox WARN dither: dither clipped 1 samples; decrease volume?\n",
      "sox WARN rate: rate clipped 3 samples; decrease volume?\n",
      "sox WARN dither: dither clipped 2 samples; decrease volume?\n",
      "sox WARN rate: rate clipped 6 samples; decrease volume?\n",
      "sox WARN dither: dither clipped 6 samples; decrease volume?\n",
      "sox WARN rate: rate clipped 3 samples; decrease volume?\n",
      "sox WARN dither: dither clipped 3 samples; decrease volume?\n",
      "sox WARN rate: rate clipped 2 samples; decrease volume?\n",
      "sox WARN dither: dither clipped 2 samples; decrease volume?\n",
      "sox WARN rate: rate clipped 1 samples; decrease volume?\n",
      "sox WARN dither: dither clipped 1 samples; decrease volume?\n",
      "sox WARN rate: rate clipped 3 samples; decrease volume?\n",
      "sox WARN dither: dither clipped 1 samples; decrease volume?\n",
      "sox WARN rate: rate clipped 1 samples; decrease volume?\n",
      "sox WARN dither: dither clipped 1 samples; decrease volume?\n",
      "sox WARN rate: rate clipped 1 samples; decrease volume?\n",
      "sox WARN dither: dither clipped 1 samples; decrease volume?\n",
      "sox WARN rate: rate clipped 1 samples; decrease volume?\n",
      "sox WARN dither: dither clipped 1 samples; decrease volume?\n",
      "sox WARN rate: rate clipped 1 samples; decrease volume?\n",
      "sox WARN dither: dither clipped 1 samples; decrease volume?\n",
      "sox WARN rate: rate clipped 1 samples; decrease volume?\n",
      "sox WARN dither: dither clipped 1 samples; decrease volume?\n",
      "sox WARN rate: rate clipped 1 samples; decrease volume?\n",
      "sox WARN dither: dither clipped 1 samples; decrease volume?\n",
      "sox WARN rate: rate clipped 1 samples; decrease volume?\n",
      "sox WARN dither: dither clipped 1 samples; decrease volume?\n",
      "sox WARN rate: rate clipped 1 samples; decrease volume?\n",
      "sox WARN dither: dither clipped 1 samples; decrease volume?\n",
      "sox WARN rate: rate clipped 12 samples; decrease volume?\n",
      "sox WARN dither: dither clipped 12 samples; decrease volume?\n",
      "sox WARN rate: rate clipped 5 samples; decrease volume?\n",
      "sox WARN dither: dither clipped 4 samples; decrease volume?\n",
      "sox WARN rate: rate clipped 1 samples; decrease volume?\n",
      "sox WARN dither: dither clipped 1 samples; decrease volume?\n",
      "sox WARN rate: rate clipped 11 samples; decrease volume?\n",
      "sox WARN dither: dither clipped 7 samples; decrease volume?\n",
      "sox WARN rate: rate clipped 1 samples; decrease volume?\n",
      "sox WARN dither: dither clipped 1 samples; decrease volume?\n",
      "sox WARN rate: rate clipped 1 samples; decrease volume?\n",
      "sox WARN rate: rate clipped 1 samples; decrease volume?\n",
      "sox WARN dither: dither clipped 1 samples; decrease volume?\n",
      "sox WARN rate: rate clipped 1 samples; decrease volume?\n",
      "sox WARN dither: dither clipped 1 samples; decrease volume?\n",
      "sox WARN rate: rate clipped 1 samples; decrease volume?\n",
      "sox WARN dither: dither clipped 1 samples; decrease volume?\n",
      "sox WARN rate: rate clipped 2 samples; decrease volume?\n",
      "sox WARN dither: dither clipped 2 samples; decrease volume?\n",
      "sox WARN rate: rate clipped 2 samples; decrease volume?\n",
      "sox WARN dither: dither clipped 2 samples; decrease volume?\n",
      "sox WARN rate: rate clipped 10 samples; decrease volume?\n",
      "sox WARN dither: dither clipped 10 samples; decrease volume?\n",
      "sox WARN rate: rate clipped 1 samples; decrease volume?\n",
      "sox WARN dither: dither clipped 1 samples; decrease volume?\n",
      "sox WARN rate: rate clipped 1 samples; decrease volume?\n",
      "sox WARN dither: dither clipped 1 samples; decrease volume?\n",
      "sox WARN rate: rate clipped 1 samples; decrease volume?\n",
      "sox WARN dither: dither clipped 1 samples; decrease volume?\n",
      "sox WARN rate: rate clipped 4 samples; decrease volume?\n",
      "sox WARN dither: dither clipped 2 samples; decrease volume?\n",
      "sox WARN rate: rate clipped 2 samples; decrease volume?\n",
      "sox WARN dither: dither clipped 2 samples; decrease volume?\n",
      "sox WARN rate: rate clipped 2 samples; decrease volume?\n",
      "sox WARN dither: dither clipped 2 samples; decrease volume?\n",
      "sox WARN rate: rate clipped 1 samples; decrease volume?\n",
      "sox WARN dither: dither clipped 1 samples; decrease volume?\n",
      "sox WARN rate: rate clipped 1 samples; decrease volume?\n",
      "sox WARN dither: dither clipped 1 samples; decrease volume?\n",
      "sox WARN rate: rate clipped 1 samples; decrease volume?\n",
      "sox WARN dither: dither clipped 1 samples; decrease volume?\n",
      "sox WARN rate: rate clipped 1 samples; decrease volume?\n",
      "sox WARN dither: dither clipped 1 samples; decrease volume?\n",
      "sox WARN rate: rate clipped 1 samples; decrease volume?\n",
      "sox WARN dither: dither clipped 1 samples; decrease volume?\n",
      "sox WARN rate: rate clipped 1 samples; decrease volume?\n",
      "sox WARN dither: dither clipped 1 samples; decrease volume?\n",
      "sox WARN rate: rate clipped 3 samples; decrease volume?\n",
      "sox WARN dither: dither clipped 3 samples; decrease volume?\n",
      "sox WARN rate: rate clipped 1 samples; decrease volume?\n",
      "sox WARN dither: dither clipped 1 samples; decrease volume?\n",
      "sox WARN rate: rate clipped 8 samples; decrease volume?\n",
      "sox WARN dither: dither clipped 8 samples; decrease volume?\n",
      "sox WARN rate: rate clipped 4 samples; decrease volume?\n",
      "sox WARN dither: dither clipped 3 samples; decrease volume?\n",
      "sox WARN rate: rate clipped 1 samples; decrease volume?\n",
      "sox WARN dither: dither clipped 1 samples; decrease volume?\n",
      "sox WARN rate: rate clipped 1 samples; decrease volume?\n",
      "sox WARN dither: dither clipped 1 samples; decrease volume?\n",
      "sox WARN rate: rate clipped 1 samples; decrease volume?\n",
      "sox WARN dither: dither clipped 1 samples; decrease volume?\n",
      "sox WARN rate: rate clipped 1 samples; decrease volume?\n",
      "sox WARN dither: dither clipped 1 samples; decrease volume?\n",
      "sox WARN rate: rate clipped 1 samples; decrease volume?\n",
      "sox WARN dither: dither clipped 1 samples; decrease volume?\n",
      "sox WARN rate: rate clipped 1 samples; decrease volume?\n",
      "sox WARN dither: dither clipped 1 samples; decrease volume?\n",
      "sox WARN rate: rate clipped 1 samples; decrease volume?\n",
      "sox WARN rate: rate clipped 2 samples; decrease volume?\n",
      "sox WARN dither: dither clipped 2 samples; decrease volume?\n",
      "sox WARN rate: rate clipped 3 samples; decrease volume?\n",
      "sox WARN dither: dither clipped 3 samples; decrease volume?\n",
      "sox WARN rate: rate clipped 1 samples; decrease volume?\n",
      "sox WARN dither: dither clipped 1 samples; decrease volume?\n",
      "sox WARN rate: rate clipped 1 samples; decrease volume?\n",
      "sox WARN dither: dither clipped 1 samples; decrease volume?\n",
      "sox WARN rate: rate clipped 2 samples; decrease volume?\n",
      "sox WARN dither: dither clipped 2 samples; decrease volume?\n",
      "sox WARN rate: rate clipped 4 samples; decrease volume?\n",
      "sox WARN dither: dither clipped 4 samples; decrease volume?\n",
      "sox WARN rate: rate clipped 2 samples; decrease volume?\n",
      "sox WARN dither: dither clipped 2 samples; decrease volume?\n",
      "sox WARN rate: rate clipped 2 samples; decrease volume?\n",
      "sox WARN dither: dither clipped 2 samples; decrease volume?\n",
      "sox WARN rate: rate clipped 4 samples; decrease volume?\n",
      "sox WARN dither: dither clipped 4 samples; decrease volume?\n",
      "sox WARN rate: rate clipped 1 samples; decrease volume?\n",
      "sox WARN dither: dither clipped 1 samples; decrease volume?\n",
      "sox WARN rate: rate clipped 3 samples; decrease volume?\n",
      "sox WARN dither: dither clipped 3 samples; decrease volume?\n",
      "sox WARN rate: rate clipped 1 samples; decrease volume?\n",
      "sox WARN dither: dither clipped 1 samples; decrease volume?\n",
      "sox WARN rate: rate clipped 6 samples; decrease volume?\n",
      "sox WARN dither: dither clipped 6 samples; decrease volume?\n",
      "sox WARN rate: rate clipped 5 samples; decrease volume?\n",
      "sox WARN dither: dither clipped 3 samples; decrease volume?\n",
      "sox WARN rate: rate clipped 16 samples; decrease volume?\n",
      "sox WARN dither: dither clipped 14 samples; decrease volume?\n",
      "sox WARN rate: rate clipped 1 samples; decrease volume?\n",
      "sox WARN dither: dither clipped 1 samples; decrease volume?\n",
      "sox WARN rate: rate clipped 3 samples; decrease volume?\n",
      "sox WARN dither: dither clipped 3 samples; decrease volume?\n",
      "sox WARN rate: rate clipped 1 samples; decrease volume?\n",
      "sox WARN dither: dither clipped 1 samples; decrease volume?\n",
      "sox WARN rate: rate clipped 12 samples; decrease volume?\n",
      "sox WARN dither: dither clipped 10 samples; decrease volume?\n",
      "sox WARN rate: rate clipped 3 samples; decrease volume?\n",
      "sox WARN dither: dither clipped 3 samples; decrease volume?\n",
      "sox WARN rate: rate clipped 2 samples; decrease volume?\n",
      "sox WARN dither: dither clipped 2 samples; decrease volume?\n",
      "sox WARN rate: rate clipped 4 samples; decrease volume?\n",
      "sox WARN dither: dither clipped 4 samples; decrease volume?\n",
      "sox WARN rate: rate clipped 1 samples; decrease volume?\n",
      "sox WARN dither: dither clipped 1 samples; decrease volume?\n",
      "sox WARN rate: rate clipped 2 samples; decrease volume?\n",
      "sox WARN dither: dither clipped 2 samples; decrease volume?\n",
      "sox WARN rate: rate clipped 1 samples; decrease volume?\n",
      "sox WARN dither: dither clipped 1 samples; decrease volume?\n",
      "sox WARN rate: rate clipped 1 samples; decrease volume?\n",
      "sox WARN rate: rate clipped 9 samples; decrease volume?\n",
      "sox WARN dither: dither clipped 7 samples; decrease volume?\n",
      "sox WARN rate: rate clipped 2 samples; decrease volume?\n",
      "sox WARN dither: dither clipped 1 samples; decrease volume?\n",
      "sox WARN rate: rate clipped 1 samples; decrease volume?\n",
      "sox WARN dither: dither clipped 1 samples; decrease volume?\n",
      "sox WARN rate: rate clipped 4 samples; decrease volume?\n",
      "sox WARN dither: dither clipped 4 samples; decrease volume?\n",
      "sox WARN rate: rate clipped 2 samples; decrease volume?\n",
      "sox WARN dither: dither clipped 2 samples; decrease volume?\n",
      "sox WARN rate: rate clipped 5 samples; decrease volume?\n",
      "sox WARN dither: dither clipped 5 samples; decrease volume?\n",
      "sox WARN rate: rate clipped 1 samples; decrease volume?\n",
      "sox WARN dither: dither clipped 1 samples; decrease volume?\n",
      "sox WARN rate: rate clipped 2 samples; decrease volume?\n",
      "sox WARN dither: dither clipped 2 samples; decrease volume?\n",
      "sox WARN rate: rate clipped 2 samples; decrease volume?\n",
      "sox WARN dither: dither clipped 2 samples; decrease volume?\n",
      "sox WARN rate: rate clipped 1 samples; decrease volume?\n",
      "sox WARN dither: dither clipped 1 samples; decrease volume?\n",
      "sox WARN rate: rate clipped 1 samples; decrease volume?\n",
      "sox WARN rate: rate clipped 2 samples; decrease volume?\n",
      "sox WARN dither: dither clipped 2 samples; decrease volume?\n",
      "sox WARN rate: rate clipped 3 samples; decrease volume?\n",
      "sox WARN dither: dither clipped 2 samples; decrease volume?\n",
      "sox WARN rate: rate clipped 1 samples; decrease volume?\n",
      "sox WARN dither: dither clipped 1 samples; decrease volume?\n",
      "sox WARN rate: rate clipped 2 samples; decrease volume?\n",
      "sox WARN dither: dither clipped 2 samples; decrease volume?\n",
      "sox WARN rate: rate clipped 3 samples; decrease volume?\n",
      "sox WARN dither: dither clipped 2 samples; decrease volume?\n",
      "sox WARN rate: rate clipped 2 samples; decrease volume?\n",
      "sox WARN dither: dither clipped 1 samples; decrease volume?\n",
      "sox WARN rate: rate clipped 1 samples; decrease volume?\n",
      "sox WARN dither: dither clipped 1 samples; decrease volume?\n",
      "sox WARN rate: rate clipped 3 samples; decrease volume?\n",
      "sox WARN dither: dither clipped 2 samples; decrease volume?\n",
      "sox WARN rate: rate clipped 8 samples; decrease volume?\n",
      "sox WARN dither: dither clipped 8 samples; decrease volume?\n",
      "sox WARN rate: rate clipped 1 samples; decrease volume?\n",
      "sox WARN dither: dither clipped 1 samples; decrease volume?\n",
      "sox WARN rate: rate clipped 1 samples; decrease volume?\n",
      "sox WARN dither: dither clipped 1 samples; decrease volume?\n",
      "sox WARN rate: rate clipped 1 samples; decrease volume?\n",
      "sox WARN rate: rate clipped 1 samples; decrease volume?\n",
      "sox WARN dither: dither clipped 1 samples; decrease volume?\n",
      "sox WARN rate: rate clipped 1 samples; decrease volume?\n",
      "sox WARN dither: dither clipped 1 samples; decrease volume?\n",
      "sox WARN rate: rate clipped 1 samples; decrease volume?\n",
      "sox WARN dither: dither clipped 1 samples; decrease volume?\n",
      "sox WARN rate: rate clipped 1 samples; decrease volume?\n",
      "sox WARN dither: dither clipped 1 samples; decrease volume?\n",
      "sox WARN rate: rate clipped 2 samples; decrease volume?\n",
      "sox WARN dither: dither clipped 2 samples; decrease volume?\n",
      "sox WARN rate: rate clipped 8 samples; decrease volume?\n",
      "sox WARN dither: dither clipped 8 samples; decrease volume?\n",
      "sox WARN rate: rate clipped 3 samples; decrease volume?\n",
      "sox WARN dither: dither clipped 3 samples; decrease volume?\n",
      "sox WARN rate: rate clipped 1 samples; decrease volume?\n",
      "sox WARN dither: dither clipped 1 samples; decrease volume?\n",
      "sox WARN rate: rate clipped 2 samples; decrease volume?\n",
      "sox WARN dither: dither clipped 2 samples; decrease volume?\n",
      "sox WARN rate: rate clipped 10 samples; decrease volume?\n",
      "sox WARN dither: dither clipped 9 samples; decrease volume?\n",
      "sox WARN rate: rate clipped 2 samples; decrease volume?\n",
      "sox WARN dither: dither clipped 2 samples; decrease volume?\n",
      "sox WARN rate: rate clipped 1 samples; decrease volume?\n",
      "sox WARN dither: dither clipped 1 samples; decrease volume?\n",
      "sox WARN rate: rate clipped 10 samples; decrease volume?\n",
      "sox WARN dither: dither clipped 8 samples; decrease volume?\n",
      "sox WARN rate: rate clipped 1 samples; decrease volume?\n",
      "sox WARN dither: dither clipped 1 samples; decrease volume?\n",
      "sox WARN rate: rate clipped 2 samples; decrease volume?\n",
      "sox WARN dither: dither clipped 2 samples; decrease volume?\n",
      "sox WARN rate: rate clipped 19 samples; decrease volume?\n",
      "sox WARN dither: dither clipped 17 samples; decrease volume?\n",
      "sox WARN rate: rate clipped 1 samples; decrease volume?\n",
      "sox WARN dither: dither clipped 1 samples; decrease volume?\n",
      "sox WARN rate: rate clipped 4 samples; decrease volume?\n",
      "sox WARN dither: dither clipped 4 samples; decrease volume?\n",
      "sox WARN rate: rate clipped 5 samples; decrease volume?\n",
      "sox WARN dither: dither clipped 4 samples; decrease volume?\n",
      "sox WARN rate: rate clipped 1 samples; decrease volume?\n",
      "sox WARN dither: dither clipped 1 samples; decrease volume?\n",
      "sox WARN rate: rate clipped 1 samples; decrease volume?\n",
      "sox WARN dither: dither clipped 1 samples; decrease volume?\n",
      "sox WARN rate: rate clipped 1 samples; decrease volume?\n",
      "sox WARN dither: dither clipped 1 samples; decrease volume?\n",
      "sox WARN rate: rate clipped 1 samples; decrease volume?\n",
      "sox WARN dither: dither clipped 1 samples; decrease volume?\n",
      "sox WARN rate: rate clipped 1 samples; decrease volume?\n",
      "sox WARN dither: dither clipped 1 samples; decrease volume?\n",
      "sox WARN rate: rate clipped 1 samples; decrease volume?\n",
      "sox WARN dither: dither clipped 1 samples; decrease volume?\n",
      "sox WARN rate: rate clipped 1 samples; decrease volume?\n",
      "sox WARN dither: dither clipped 1 samples; decrease volume?\n",
      "sox WARN rate: rate clipped 1 samples; decrease volume?\n",
      "sox WARN dither: dither clipped 1 samples; decrease volume?\n",
      "sox WARN rate: rate clipped 1 samples; decrease volume?\n",
      "sox WARN dither: dither clipped 1 samples; decrease volume?\n",
      "sox WARN rate: rate clipped 13 samples; decrease volume?\n",
      "sox WARN dither: dither clipped 13 samples; decrease volume?\n",
      "sox WARN rate: rate clipped 2 samples; decrease volume?\n",
      "sox WARN dither: dither clipped 2 samples; decrease volume?\n",
      "sox WARN rate: rate clipped 26 samples; decrease volume?\n",
      "sox WARN dither: dither clipped 19 samples; decrease volume?\n",
      "sox WARN rate: rate clipped 2 samples; decrease volume?\n",
      "sox WARN dither: dither clipped 2 samples; decrease volume?\n",
      "sox WARN rate: rate clipped 1 samples; decrease volume?\n",
      "sox WARN dither: dither clipped 1 samples; decrease volume?\n",
      "sox WARN rate: rate clipped 1 samples; decrease volume?\n",
      "sox WARN dither: dither clipped 1 samples; decrease volume?\n",
      "sox WARN rate: rate clipped 6 samples; decrease volume?\n",
      "sox WARN dither: dither clipped 6 samples; decrease volume?\n",
      "sox WARN rate: rate clipped 1 samples; decrease volume?\n",
      "sox WARN dither: dither clipped 1 samples; decrease volume?\n",
      "sox WARN rate: rate clipped 1 samples; decrease volume?\n",
      "sox WARN dither: dither clipped 1 samples; decrease volume?\n",
      "sox WARN rate: rate clipped 1 samples; decrease volume?\n",
      "sox WARN dither: dither clipped 1 samples; decrease volume?\n",
      "sox WARN rate: rate clipped 2 samples; decrease volume?\n",
      "sox WARN dither: dither clipped 2 samples; decrease volume?\n",
      "sox WARN rate: rate clipped 11 samples; decrease volume?\n",
      "sox WARN dither: dither clipped 9 samples; decrease volume?\n",
      "sox WARN rate: rate clipped 2 samples; decrease volume?\n",
      "sox WARN dither: dither clipped 2 samples; decrease volume?\n",
      "sox WARN rate: rate clipped 1 samples; decrease volume?\n",
      "sox WARN dither: dither clipped 1 samples; decrease volume?\n",
      "sox WARN rate: rate clipped 3 samples; decrease volume?\n",
      "sox WARN dither: dither clipped 2 samples; decrease volume?\n",
      "sox WARN rate: rate clipped 1 samples; decrease volume?\n",
      "sox WARN dither: dither clipped 1 samples; decrease volume?\n",
      "sox WARN rate: rate clipped 7 samples; decrease volume?\n",
      "sox WARN dither: dither clipped 7 samples; decrease volume?\n",
      "sox WARN rate: rate clipped 2 samples; decrease volume?\n",
      "sox WARN dither: dither clipped 2 samples; decrease volume?\n",
      "sox WARN rate: rate clipped 2 samples; decrease volume?\n",
      "sox WARN dither: dither clipped 2 samples; decrease volume?\n",
      "sox WARN rate: rate clipped 3 samples; decrease volume?\n",
      "sox WARN dither: dither clipped 3 samples; decrease volume?\n",
      "sox WARN rate: rate clipped 1 samples; decrease volume?\n",
      "sox WARN dither: dither clipped 1 samples; decrease volume?\n",
      "sox WARN rate: rate clipped 1 samples; decrease volume?\n",
      "sox WARN dither: dither clipped 1 samples; decrease volume?\n",
      "sox WARN rate: rate clipped 13 samples; decrease volume?\n",
      "sox WARN dither: dither clipped 11 samples; decrease volume?\n",
      "sox WARN rate: rate clipped 2 samples; decrease volume?\n",
      "sox WARN dither: dither clipped 2 samples; decrease volume?\n",
      "sox WARN dither: dither clipped 1 samples; decrease volume?\n",
      "sox WARN rate: rate clipped 7 samples; decrease volume?\n",
      "sox WARN dither: dither clipped 7 samples; decrease volume?\n",
      "sox WARN rate: rate clipped 1 samples; decrease volume?\n",
      "sox WARN rate: rate clipped 6 samples; decrease volume?\n",
      "sox WARN dither: dither clipped 5 samples; decrease volume?\n",
      "sox WARN rate: rate clipped 1 samples; decrease volume?\n",
      "sox WARN dither: dither clipped 1 samples; decrease volume?\n",
      "sox WARN rate: rate clipped 1 samples; decrease volume?\n",
      "sox WARN dither: dither clipped 1 samples; decrease volume?\n",
      "sox WARN rate: rate clipped 1 samples; decrease volume?\n",
      "sox WARN dither: dither clipped 1 samples; decrease volume?\n",
      "sox WARN rate: rate clipped 1 samples; decrease volume?\n",
      "sox WARN dither: dither clipped 1 samples; decrease volume?\n",
      "sox WARN rate: rate clipped 12 samples; decrease volume?\n",
      "sox WARN dither: dither clipped 10 samples; decrease volume?\n",
      "sox WARN rate: rate clipped 6 samples; decrease volume?\n",
      "sox WARN dither: dither clipped 6 samples; decrease volume?\n",
      "sox WARN rate: rate clipped 1 samples; decrease volume?\n",
      "sox WARN dither: dither clipped 1 samples; decrease volume?\n",
      "sox WARN rate: rate clipped 1 samples; decrease volume?\n",
      "sox WARN dither: dither clipped 1 samples; decrease volume?\n",
      "sox WARN rate: rate clipped 1 samples; decrease volume?\n",
      "sox WARN dither: dither clipped 1 samples; decrease volume?\n",
      "sox WARN rate: rate clipped 1 samples; decrease volume?\n",
      "sox WARN dither: dither clipped 1 samples; decrease volume?\n",
      "sox WARN rate: rate clipped 2 samples; decrease volume?\n",
      "sox WARN dither: dither clipped 2 samples; decrease volume?\n",
      "sox WARN rate: rate clipped 3 samples; decrease volume?\n",
      "sox WARN dither: dither clipped 1 samples; decrease volume?\n",
      "sox WARN rate: rate clipped 1 samples; decrease volume?\n",
      "sox WARN rate: rate clipped 1 samples; decrease volume?\n",
      "sox WARN dither: dither clipped 1 samples; decrease volume?\n",
      "sox WARN rate: rate clipped 1 samples; decrease volume?\n",
      "sox WARN dither: dither clipped 1 samples; decrease volume?\n",
      "sox WARN rate: rate clipped 3 samples; decrease volume?\n",
      "sox WARN dither: dither clipped 3 samples; decrease volume?\n",
      "sox WARN rate: rate clipped 1 samples; decrease volume?\n",
      "sox WARN dither: dither clipped 1 samples; decrease volume?\n",
      "sox WARN rate: rate clipped 2 samples; decrease volume?\n",
      "sox WARN dither: dither clipped 1 samples; decrease volume?\n",
      "sox WARN rate: rate clipped 6 samples; decrease volume?\n",
      "sox WARN dither: dither clipped 5 samples; decrease volume?\n",
      "sox WARN rate: rate clipped 1 samples; decrease volume?\n",
      "sox WARN dither: dither clipped 1 samples; decrease volume?\n",
      "sox WARN rate: rate clipped 1 samples; decrease volume?\n",
      "sox WARN dither: dither clipped 1 samples; decrease volume?\n",
      "sox WARN rate: rate clipped 2 samples; decrease volume?\n",
      "sox WARN dither: dither clipped 2 samples; decrease volume?\n",
      "sox WARN rate: rate clipped 1 samples; decrease volume?\n",
      "sox WARN dither: dither clipped 1 samples; decrease volume?\n",
      "sox WARN rate: rate clipped 6 samples; decrease volume?\n",
      "sox WARN dither: dither clipped 5 samples; decrease volume?\n",
      "sox WARN rate: rate clipped 2 samples; decrease volume?\n",
      "sox WARN dither: dither clipped 2 samples; decrease volume?\n",
      "sox WARN rate: rate clipped 1 samples; decrease volume?\n",
      "sox WARN dither: dither clipped 1 samples; decrease volume?\n",
      "sox WARN rate: rate clipped 1 samples; decrease volume?\n",
      "sox WARN dither: dither clipped 1 samples; decrease volume?\n",
      "sox WARN rate: rate clipped 1 samples; decrease volume?\n",
      "sox WARN dither: dither clipped 1 samples; decrease volume?\n",
      "sox WARN rate: rate clipped 1 samples; decrease volume?\n",
      "sox WARN dither: dither clipped 1 samples; decrease volume?\n",
      "sox WARN rate: rate clipped 4 samples; decrease volume?\n",
      "sox WARN dither: dither clipped 4 samples; decrease volume?\n",
      "sox WARN rate: rate clipped 4 samples; decrease volume?\n",
      "sox WARN dither: dither clipped 4 samples; decrease volume?\n",
      "sox WARN rate: rate clipped 1 samples; decrease volume?\n",
      "sox WARN dither: dither clipped 1 samples; decrease volume?\n",
      "sox WARN rate: rate clipped 2 samples; decrease volume?\n",
      "sox WARN dither: dither clipped 2 samples; decrease volume?\n",
      "sox WARN rate: rate clipped 7 samples; decrease volume?\n",
      "sox WARN dither: dither clipped 7 samples; decrease volume?\n",
      "sox WARN rate: rate clipped 1 samples; decrease volume?\n",
      "sox WARN dither: dither clipped 1 samples; decrease volume?\n",
      "sox WARN rate: rate clipped 1 samples; decrease volume?\n",
      "sox WARN dither: dither clipped 1 samples; decrease volume?\n",
      "sox WARN rate: rate clipped 4 samples; decrease volume?\n",
      "sox WARN dither: dither clipped 4 samples; decrease volume?\n",
      "sox WARN rate: rate clipped 4 samples; decrease volume?\n",
      "sox WARN dither: dither clipped 4 samples; decrease volume?\n",
      "sox WARN rate: rate clipped 6 samples; decrease volume?\n",
      "sox WARN dither: dither clipped 5 samples; decrease volume?\n",
      "sox WARN rate: rate clipped 4 samples; decrease volume?\n",
      "sox WARN dither: dither clipped 2 samples; decrease volume?\n",
      "sox WARN rate: rate clipped 1 samples; decrease volume?\n",
      "sox WARN dither: dither clipped 1 samples; decrease volume?\n",
      "sox WARN rate: rate clipped 6 samples; decrease volume?\n",
      "sox WARN dither: dither clipped 5 samples; decrease volume?\n",
      "sox WARN rate: rate clipped 3 samples; decrease volume?\n",
      "sox WARN dither: dither clipped 3 samples; decrease volume?\n",
      "sox WARN rate: rate clipped 1 samples; decrease volume?\n",
      "sox WARN dither: dither clipped 1 samples; decrease volume?\n",
      "sox WARN rate: rate clipped 2 samples; decrease volume?\n",
      "sox WARN dither: dither clipped 2 samples; decrease volume?\n",
      "sox WARN rate: rate clipped 9 samples; decrease volume?\n",
      "sox WARN dither: dither clipped 9 samples; decrease volume?\n",
      "sox WARN rate: rate clipped 2 samples; decrease volume?\n",
      "sox WARN dither: dither clipped 1 samples; decrease volume?\n",
      "sox WARN rate: rate clipped 19 samples; decrease volume?\n",
      "sox WARN dither: dither clipped 15 samples; decrease volume?\n",
      "sox WARN rate: rate clipped 2 samples; decrease volume?\n",
      "sox WARN dither: dither clipped 2 samples; decrease volume?\n",
      "sox WARN rate: rate clipped 1 samples; decrease volume?\n",
      "sox WARN rate: rate clipped 28 samples; decrease volume?\n",
      "sox WARN dither: dither clipped 25 samples; decrease volume?\n",
      "sox WARN rate: rate clipped 1 samples; decrease volume?\n",
      "sox WARN dither: dither clipped 1 samples; decrease volume?\n",
      "sox WARN rate: rate clipped 1 samples; decrease volume?\n",
      "sox WARN dither: dither clipped 1 samples; decrease volume?\n",
      "sox WARN rate: rate clipped 2 samples; decrease volume?\n",
      "sox WARN dither: dither clipped 2 samples; decrease volume?\n",
      "sox WARN rate: rate clipped 1 samples; decrease volume?\n",
      "sox WARN rate: rate clipped 2 samples; decrease volume?\n",
      "sox WARN dither: dither clipped 2 samples; decrease volume?\n",
      "sox WARN rate: rate clipped 1 samples; decrease volume?\n",
      "sox WARN dither: dither clipped 1 samples; decrease volume?\n",
      "sox WARN rate: rate clipped 2 samples; decrease volume?\n",
      "sox WARN dither: dither clipped 2 samples; decrease volume?\n",
      "sox WARN rate: rate clipped 1 samples; decrease volume?\n",
      "sox WARN dither: dither clipped 1 samples; decrease volume?\n",
      "sox WARN rate: rate clipped 1 samples; decrease volume?\n",
      "sox WARN dither: dither clipped 1 samples; decrease volume?\n",
      "sox WARN rate: rate clipped 1 samples; decrease volume?\n",
      "sox WARN dither: dither clipped 1 samples; decrease volume?\n",
      "sox WARN rate: rate clipped 2 samples; decrease volume?\n",
      "sox WARN dither: dither clipped 2 samples; decrease volume?\n",
      "sox WARN rate: rate clipped 1 samples; decrease volume?\n",
      "sox WARN dither: dither clipped 1 samples; decrease volume?\n",
      "sox WARN rate: rate clipped 2 samples; decrease volume?\n",
      "sox WARN dither: dither clipped 1 samples; decrease volume?\n",
      "sox WARN rate: rate clipped 3 samples; decrease volume?\n",
      "sox WARN dither: dither clipped 2 samples; decrease volume?\n",
      "sox WARN rate: rate clipped 3 samples; decrease volume?\n",
      "sox WARN dither: dither clipped 3 samples; decrease volume?\n",
      "sox WARN rate: rate clipped 1 samples; decrease volume?\n",
      "sox WARN dither: dither clipped 1 samples; decrease volume?\n",
      "sox WARN rate: rate clipped 3 samples; decrease volume?\n",
      "sox WARN dither: dither clipped 2 samples; decrease volume?\n",
      "sox WARN rate: rate clipped 4 samples; decrease volume?\n",
      "sox WARN dither: dither clipped 4 samples; decrease volume?\n",
      "sox WARN rate: rate clipped 3 samples; decrease volume?\n",
      "sox WARN dither: dither clipped 2 samples; decrease volume?\n",
      "sox WARN rate: rate clipped 2 samples; decrease volume?\n",
      "sox WARN dither: dither clipped 2 samples; decrease volume?\n",
      "sox WARN rate: rate clipped 1 samples; decrease volume?\n",
      "sox WARN dither: dither clipped 1 samples; decrease volume?\n",
      "sox WARN rate: rate clipped 5 samples; decrease volume?\n",
      "sox WARN dither: dither clipped 4 samples; decrease volume?\n",
      "sox WARN rate: rate clipped 6 samples; decrease volume?\n",
      "sox WARN dither: dither clipped 6 samples; decrease volume?\n",
      "sox WARN rate: rate clipped 3 samples; decrease volume?\n",
      "sox WARN dither: dither clipped 3 samples; decrease volume?\n",
      "sox WARN rate: rate clipped 1 samples; decrease volume?\n",
      "sox WARN dither: dither clipped 1 samples; decrease volume?\n",
      "sox WARN rate: rate clipped 1 samples; decrease volume?\n",
      "sox WARN dither: dither clipped 1 samples; decrease volume?\n",
      "sox WARN rate: rate clipped 2 samples; decrease volume?\n",
      "sox WARN dither: dither clipped 2 samples; decrease volume?\n",
      "sox WARN rate: rate clipped 1 samples; decrease volume?\n",
      "sox WARN dither: dither clipped 1 samples; decrease volume?\n",
      "sox WARN rate: rate clipped 1 samples; decrease volume?\n",
      "sox WARN dither: dither clipped 1 samples; decrease volume?\n",
      "sox WARN rate: rate clipped 1 samples; decrease volume?\n",
      "sox WARN dither: dither clipped 1 samples; decrease volume?\n",
      "sox WARN rate: rate clipped 4 samples; decrease volume?\n",
      "sox WARN dither: dither clipped 2 samples; decrease volume?\n",
      "sox WARN rate: rate clipped 5 samples; decrease volume?\n",
      "sox WARN dither: dither clipped 5 samples; decrease volume?\n",
      "sox WARN rate: rate clipped 1 samples; decrease volume?\n",
      "sox WARN dither: dither clipped 1 samples; decrease volume?\n",
      "sox WARN rate: rate clipped 1 samples; decrease volume?\n",
      "sox WARN dither: dither clipped 1 samples; decrease volume?\n",
      "sox WARN rate: rate clipped 1 samples; decrease volume?\n",
      "sox WARN dither: dither clipped 1 samples; decrease volume?\n",
      "sox WARN rate: rate clipped 9 samples; decrease volume?\n",
      "sox WARN dither: dither clipped 9 samples; decrease volume?\n",
      "sox WARN rate: rate clipped 1 samples; decrease volume?\n",
      "sox WARN dither: dither clipped 1 samples; decrease volume?\n",
      "sox WARN rate: rate clipped 3 samples; decrease volume?\n",
      "sox WARN dither: dither clipped 1 samples; decrease volume?\n",
      "sox WARN rate: rate clipped 1 samples; decrease volume?\n",
      "sox WARN dither: dither clipped 1 samples; decrease volume?\n",
      "sox WARN rate: rate clipped 2 samples; decrease volume?\n",
      "sox WARN dither: dither clipped 2 samples; decrease volume?\n",
      "sox WARN rate: rate clipped 1 samples; decrease volume?\n",
      "sox WARN dither: dither clipped 1 samples; decrease volume?\n",
      "sox WARN rate: rate clipped 5 samples; decrease volume?\n",
      "sox WARN dither: dither clipped 4 samples; decrease volume?\n",
      "sox WARN rate: rate clipped 6 samples; decrease volume?\n",
      "sox WARN dither: dither clipped 6 samples; decrease volume?\n",
      "sox WARN rate: rate clipped 8 samples; decrease volume?\n",
      "sox WARN dither: dither clipped 8 samples; decrease volume?\n",
      "sox WARN rate: rate clipped 4 samples; decrease volume?\n",
      "sox WARN dither: dither clipped 4 samples; decrease volume?\n",
      "sox WARN rate: rate clipped 1 samples; decrease volume?\n",
      "sox WARN rate: rate clipped 2 samples; decrease volume?\n",
      "sox WARN dither: dither clipped 1 samples; decrease volume?\n",
      "sox WARN rate: rate clipped 16 samples; decrease volume?\n",
      "sox WARN dither: dither clipped 15 samples; decrease volume?\n",
      "sox WARN rate: rate clipped 1 samples; decrease volume?\n",
      "sox WARN dither: dither clipped 1 samples; decrease volume?\n",
      "sox WARN rate: rate clipped 2 samples; decrease volume?\n",
      "sox WARN dither: dither clipped 1 samples; decrease volume?\n",
      "sox WARN rate: rate clipped 1 samples; decrease volume?\n",
      "sox WARN dither: dither clipped 1 samples; decrease volume?\n",
      "sox WARN rate: rate clipped 12 samples; decrease volume?\n",
      "sox WARN dither: dither clipped 11 samples; decrease volume?\n",
      "sox WARN rate: rate clipped 7 samples; decrease volume?\n",
      "sox WARN dither: dither clipped 6 samples; decrease volume?\n",
      "sox WARN rate: rate clipped 3 samples; decrease volume?\n",
      "sox WARN dither: dither clipped 3 samples; decrease volume?\n",
      "sox WARN rate: rate clipped 1 samples; decrease volume?\n",
      "sox WARN dither: dither clipped 1 samples; decrease volume?\n",
      "sox WARN rate: rate clipped 1 samples; decrease volume?\n",
      "sox WARN dither: dither clipped 1 samples; decrease volume?\n",
      "sox WARN rate: rate clipped 1 samples; decrease volume?\n",
      "sox WARN dither: dither clipped 1 samples; decrease volume?\n",
      "sox WARN rate: rate clipped 8 samples; decrease volume?\n",
      "sox WARN dither: dither clipped 8 samples; decrease volume?\n",
      "sox WARN rate: rate clipped 1 samples; decrease volume?\n",
      "sox WARN rate: rate clipped 1 samples; decrease volume?\n",
      "sox WARN dither: dither clipped 1 samples; decrease volume?\n",
      "sox WARN rate: rate clipped 2 samples; decrease volume?\n",
      "sox WARN dither: dither clipped 1 samples; decrease volume?\n",
      "sox WARN rate: rate clipped 1 samples; decrease volume?\n",
      "sox WARN dither: dither clipped 1 samples; decrease volume?\n",
      "sox WARN rate: rate clipped 21 samples; decrease volume?\n",
      "sox WARN dither: dither clipped 18 samples; decrease volume?\n",
      "sox WARN rate: rate clipped 3 samples; decrease volume?\n",
      "sox WARN dither: dither clipped 2 samples; decrease volume?\n",
      "sox WARN rate: rate clipped 2 samples; decrease volume?\n",
      "sox WARN dither: dither clipped 2 samples; decrease volume?\n",
      "sox WARN rate: rate clipped 22 samples; decrease volume?\n",
      "sox WARN dither: dither clipped 20 samples; decrease volume?\n",
      "sox WARN rate: rate clipped 3 samples; decrease volume?\n",
      "sox WARN dither: dither clipped 3 samples; decrease volume?\n",
      "sox WARN rate: rate clipped 1 samples; decrease volume?\n",
      "sox WARN dither: dither clipped 1 samples; decrease volume?\n",
      "sox WARN rate: rate clipped 7 samples; decrease volume?\n",
      "sox WARN dither: dither clipped 7 samples; decrease volume?\n",
      "sox WARN rate: rate clipped 2 samples; decrease volume?\n",
      "sox WARN dither: dither clipped 1 samples; decrease volume?\n",
      "sox WARN rate: rate clipped 2 samples; decrease volume?\n",
      "sox WARN dither: dither clipped 2 samples; decrease volume?\n",
      "sox WARN rate: rate clipped 2 samples; decrease volume?\n",
      "sox WARN dither: dither clipped 2 samples; decrease volume?\n",
      "sox WARN rate: rate clipped 1 samples; decrease volume?\n",
      "sox WARN dither: dither clipped 1 samples; decrease volume?\n",
      "sox WARN rate: rate clipped 2 samples; decrease volume?\n",
      "sox WARN dither: dither clipped 2 samples; decrease volume?\n",
      "sox WARN rate: rate clipped 2 samples; decrease volume?\n",
      "sox WARN dither: dither clipped 1 samples; decrease volume?\n",
      "sox WARN rate: rate clipped 2 samples; decrease volume?\n",
      "sox WARN dither: dither clipped 2 samples; decrease volume?\n",
      "sox WARN rate: rate clipped 15 samples; decrease volume?\n",
      "sox WARN dither: dither clipped 15 samples; decrease volume?\n",
      "sox WARN rate: rate clipped 59 samples; decrease volume?\n",
      "sox WARN dither: dither clipped 54 samples; decrease volume?\n",
      "sox WARN rate: rate clipped 1 samples; decrease volume?\n",
      "sox WARN dither: dither clipped 1 samples; decrease volume?\n",
      "sox WARN rate: rate clipped 1 samples; decrease volume?\n",
      "sox WARN dither: dither clipped 1 samples; decrease volume?\n",
      "sox WARN rate: rate clipped 1 samples; decrease volume?\n",
      "sox WARN rate: rate clipped 8 samples; decrease volume?\n",
      "sox WARN dither: dither clipped 8 samples; decrease volume?\n",
      "sox WARN rate: rate clipped 3 samples; decrease volume?\n",
      "sox WARN dither: dither clipped 1 samples; decrease volume?\n",
      "sox WARN rate: rate clipped 48 samples; decrease volume?\n",
      "sox WARN dither: dither clipped 46 samples; decrease volume?\n",
      "sox WARN rate: rate clipped 5 samples; decrease volume?\n",
      "sox WARN dither: dither clipped 5 samples; decrease volume?\n",
      "sox WARN rate: rate clipped 1 samples; decrease volume?\n",
      "sox WARN dither: dither clipped 1 samples; decrease volume?\n",
      "sox WARN rate: rate clipped 12 samples; decrease volume?\n",
      "sox WARN dither: dither clipped 10 samples; decrease volume?\n",
      "sox WARN dither: dither clipped 1 samples; decrease volume?\n",
      "sox WARN rate: rate clipped 1 samples; decrease volume?\n",
      "sox WARN dither: dither clipped 1 samples; decrease volume?\n",
      "sox WARN rate: rate clipped 1 samples; decrease volume?\n",
      "sox WARN dither: dither clipped 1 samples; decrease volume?\n",
      "sox WARN rate: rate clipped 1 samples; decrease volume?\n",
      "sox WARN dither: dither clipped 1 samples; decrease volume?\n",
      "sox WARN rate: rate clipped 1 samples; decrease volume?\n",
      "sox WARN dither: dither clipped 1 samples; decrease volume?\n",
      "sox WARN rate: rate clipped 1 samples; decrease volume?\n",
      "sox WARN dither: dither clipped 1 samples; decrease volume?\n",
      "sox WARN rate: rate clipped 2 samples; decrease volume?\n",
      "sox WARN dither: dither clipped 2 samples; decrease volume?\n",
      "sox WARN rate: rate clipped 5 samples; decrease volume?\n",
      "sox WARN dither: dither clipped 4 samples; decrease volume?\n",
      "sox WARN rate: rate clipped 1 samples; decrease volume?\n",
      "sox WARN dither: dither clipped 1 samples; decrease volume?\n",
      "sox WARN rate: rate clipped 3 samples; decrease volume?\n",
      "sox WARN dither: dither clipped 3 samples; decrease volume?\n",
      "sox WARN rate: rate clipped 9 samples; decrease volume?\n",
      "sox WARN dither: dither clipped 9 samples; decrease volume?\n",
      "sox WARN rate: rate clipped 1 samples; decrease volume?\n",
      "sox WARN dither: dither clipped 1 samples; decrease volume?\n",
      "sox WARN rate: rate clipped 1 samples; decrease volume?\n",
      "sox WARN dither: dither clipped 1 samples; decrease volume?\n",
      "sox WARN rate: rate clipped 2 samples; decrease volume?\n",
      "sox WARN dither: dither clipped 2 samples; decrease volume?\n",
      "sox WARN rate: rate clipped 1 samples; decrease volume?\n",
      "sox WARN dither: dither clipped 1 samples; decrease volume?\n",
      "sox WARN rate: rate clipped 1 samples; decrease volume?\n",
      "sox WARN rate: rate clipped 1 samples; decrease volume?\n",
      "sox WARN dither: dither clipped 1 samples; decrease volume?\n",
      "sox WARN rate: rate clipped 2 samples; decrease volume?\n",
      "sox WARN dither: dither clipped 2 samples; decrease volume?\n",
      "sox WARN rate: rate clipped 1 samples; decrease volume?\n",
      "sox WARN dither: dither clipped 1 samples; decrease volume?\n",
      "sox WARN rate: rate clipped 1 samples; decrease volume?\n",
      "sox WARN dither: dither clipped 1 samples; decrease volume?\n",
      "sox WARN rate: rate clipped 2 samples; decrease volume?\n",
      "sox WARN dither: dither clipped 2 samples; decrease volume?\n",
      "sox WARN rate: rate clipped 1 samples; decrease volume?\n",
      "sox WARN dither: dither clipped 1 samples; decrease volume?\n",
      "sox WARN rate: rate clipped 1 samples; decrease volume?\n",
      "sox WARN dither: dither clipped 1 samples; decrease volume?\n",
      "sox WARN rate: rate clipped 3 samples; decrease volume?\n",
      "sox WARN dither: dither clipped 3 samples; decrease volume?\n",
      "sox WARN rate: rate clipped 1 samples; decrease volume?\n",
      "sox WARN dither: dither clipped 1 samples; decrease volume?\n",
      "sox WARN rate: rate clipped 1 samples; decrease volume?\n",
      "sox WARN dither: dither clipped 1 samples; decrease volume?\n",
      "sox WARN rate: rate clipped 2 samples; decrease volume?\n",
      "sox WARN dither: dither clipped 2 samples; decrease volume?\n",
      "sox WARN rate: rate clipped 3 samples; decrease volume?\n",
      "sox WARN rate: rate clipped 1 samples; decrease volume?\n",
      "sox WARN dither: dither clipped 1 samples; decrease volume?\n",
      "sox WARN rate: rate clipped 2 samples; decrease volume?\n",
      "sox WARN dither: dither clipped 2 samples; decrease volume?\n",
      "sox WARN rate: rate clipped 2 samples; decrease volume?\n",
      "sox WARN dither: dither clipped 2 samples; decrease volume?\n",
      "sox WARN rate: rate clipped 2 samples; decrease volume?\n",
      "sox WARN dither: dither clipped 2 samples; decrease volume?\n",
      "sox WARN rate: rate clipped 1 samples; decrease volume?\n",
      "sox WARN dither: dither clipped 1 samples; decrease volume?\n",
      "sox WARN rate: rate clipped 1 samples; decrease volume?\n",
      "sox WARN dither: dither clipped 1 samples; decrease volume?\n",
      "sox WARN rate: rate clipped 1 samples; decrease volume?\n",
      "sox WARN dither: dither clipped 1 samples; decrease volume?\n",
      "sox WARN rate: rate clipped 1 samples; decrease volume?\n",
      "sox WARN dither: dither clipped 1 samples; decrease volume?\n",
      "sox WARN rate: rate clipped 1 samples; decrease volume?\n",
      "sox WARN dither: dither clipped 1 samples; decrease volume?\n",
      "sox WARN rate: rate clipped 1 samples; decrease volume?sox WARN rate: \n",
      "sox WARN dither: rate clipped 3 samples; decrease volume?dither clipped 1 samples; decrease volume?\n",
      "\n",
      "sox WARN dither: dither clipped 2 samples; decrease volume?\n",
      "sox WARN rate: rate clipped 4 samples; decrease volume?\n",
      "sox WARN dither: dither clipped 4 samples; decrease volume?\n",
      "sox WARN rate: rate clipped 38 samples; decrease volume?\n",
      "sox WARN dither: dither clipped 27 samples; decrease volume?\n",
      "sox WARN rate: rate clipped 1 samples; decrease volume?\n",
      "sox WARN dither: dither clipped 1 samples; decrease volume?\n",
      "sox WARN rate: rate clipped 7 samples; decrease volume?\n",
      "sox WARN dither: dither clipped 7 samples; decrease volume?\n",
      "sox WARN rate: rate clipped 1 samples; decrease volume?\n",
      "sox WARN dither: dither clipped 1 samples; decrease volume?\n",
      "sox WARN rate: rate clipped 17 samples; decrease volume?\n",
      "sox WARN dither: dither clipped 13 samples; decrease volume?\n",
      "sox WARN rate: rate clipped 1 samples; decrease volume?\n",
      "sox WARN dither: dither clipped 1 samples; decrease volume?\n",
      "sox WARN rate: rate clipped 3 samples; decrease volume?\n",
      "sox WARN dither: dither clipped 3 samples; decrease volume?\n",
      "sox WARN rate: rate clipped 5 samples; decrease volume?\n",
      "sox WARN dither: dither clipped 5 samples; decrease volume?\n",
      "sox WARN rate: rate clipped 3 samples; decrease volume?\n",
      "sox WARN dither: dither clipped 1 samples; decrease volume?\n",
      "sox WARN rate: rate clipped 1 samples; decrease volume?\n",
      "sox WARN rate: rate clipped 1 samples; decrease volume?\n",
      "sox WARN dither: dither clipped 1 samples; decrease volume?\n",
      "sox WARN rate: rate clipped 1 samples; decrease volume?\n",
      "sox WARN rate: rate clipped 3 samples; decrease volume?\n",
      "sox WARN dither: dither clipped 3 samples; decrease volume?\n",
      "sox WARN rate: rate clipped 3 samples; decrease volume?\n",
      "sox WARN dither: dither clipped 2 samples; decrease volume?\n",
      "sox WARN rate: rate clipped 17 samples; decrease volume?\n",
      "sox WARN dither: dither clipped 14 samples; decrease volume?\n",
      "sox WARN rate: rate clipped 1 samples; decrease volume?\n",
      "sox WARN dither: dither clipped 1 samples; decrease volume?\n",
      "sox WARN rate: rate clipped 1 samples; decrease volume?\n",
      "sox WARN dither: dither clipped 1 samples; decrease volume?\n",
      "sox WARN rate: rate clipped 2 samples; decrease volume?\n",
      "sox WARN dither: dither clipped 2 samples; decrease volume?\n",
      "sox WARN rate: rate clipped 1 samples; decrease volume?\n",
      "sox WARN dither: dither clipped 1 samples; decrease volume?\n",
      "sox WARN rate: rate clipped 2 samples; decrease volume?\n",
      "sox WARN dither: dither clipped 2 samples; decrease volume?\n",
      "sox WARN rate: rate clipped 1 samples; decrease volume?\n",
      "sox WARN dither: dither clipped 1 samples; decrease volume?\n",
      "sox WARN rate: rate clipped 9 samples; decrease volume?\n",
      "sox WARN dither: dither clipped 9 samples; decrease volume?\n",
      "sox WARN rate: rate clipped 7 samples; decrease volume?\n",
      "sox WARN dither: dither clipped 6 samples; decrease volume?\n",
      "sox WARN rate: rate clipped 1 samples; decrease volume?\n",
      "sox WARN dither: dither clipped 1 samples; decrease volume?\n",
      "sox WARN rate: rate clipped 8 samples; decrease volume?\n",
      "sox WARN dither: dither clipped 8 samples; decrease volume?\n",
      "sox WARN rate: rate clipped 1 samples; decrease volume?\n",
      "sox WARN dither: dither clipped 1 samples; decrease volume?\n",
      "sox WARN rate: rate clipped 2 samples; decrease volume?\n",
      "sox WARN rate: rate clipped 2 samples; decrease volume?\n",
      "sox WARN dither: dither clipped 2 samples; decrease volume?\n",
      "sox WARN rate: rate clipped 12 samples; decrease volume?\n",
      "sox WARN dither: dither clipped 11 samples; decrease volume?\n",
      "sox WARN rate: rate clipped 1 samples; decrease volume?\n",
      "sox WARN dither: dither clipped 1 samples; decrease volume?\n",
      "sox WARN rate: rate clipped 1 samples; decrease volume?\n",
      "sox WARN dither: dither clipped 1 samples; decrease volume?\n",
      "sox WARN rate: rate clipped 9 samples; decrease volume?\n",
      "sox WARN dither: dither clipped 6 samples; decrease volume?\n",
      "sox WARN rate: rate clipped 1 samples; decrease volume?\n",
      "sox WARN dither: dither clipped 1 samples; decrease volume?\n",
      "sox WARN rate: rate clipped 1 samples; decrease volume?\n",
      "sox WARN dither: dither clipped 1 samples; decrease volume?\n",
      "sox WARN rate: rate clipped 2 samples; decrease volume?\n",
      "sox WARN dither: dither clipped 1 samples; decrease volume?\n",
      "sox WARN rate: rate clipped 1 samples; decrease volume?\n",
      "sox WARN dither: dither clipped 1 samples; decrease volume?\n",
      "sox WARN rate: rate clipped 1 samples; decrease volume?\n",
      "sox WARN dither: dither clipped 1 samples; decrease volume?\n",
      "sox WARN rate: rate clipped 1 samples; decrease volume?\n",
      "sox WARN dither: dither clipped 1 samples; decrease volume?\n",
      "sox WARN rate: rate clipped 1 samples; decrease volume?\n",
      "sox WARN dither: dither clipped 1 samples; decrease volume?\n",
      "sox WARN rate: rate clipped 1 samples; decrease volume?\n",
      "sox WARN dither: dither clipped 1 samples; decrease volume?\n",
      "sox WARN rate: rate clipped 1 samples; decrease volume?\n",
      "sox WARN dither: dither clipped 1 samples; decrease volume?\n",
      "sox WARN rate: rate clipped 1 samples; decrease volume?\n",
      "sox WARN dither: dither clipped 1 samples; decrease volume?\n",
      "sox WARN rate: rate clipped 5 samples; decrease volume?\n",
      "sox WARN dither: dither clipped 5 samples; decrease volume?\n",
      "sox WARN rate: rate clipped 1 samples; decrease volume?\n",
      "sox WARN rate: rate clipped 6 samples; decrease volume?\n",
      "sox WARN dither: dither clipped 6 samples; decrease volume?\n",
      "sox WARN rate: rate clipped 1 samples; decrease volume?\n",
      "sox WARN dither: dither clipped 1 samples; decrease volume?\n",
      "sox WARN rate: rate clipped 4 samples; decrease volume?\n",
      "sox WARN dither: dither clipped 4 samples; decrease volume?\n",
      "sox WARN rate: rate clipped 1 samples; decrease volume?\n",
      "sox WARN dither: dither clipped 1 samples; decrease volume?\n",
      "sox WARN rate: rate clipped 2 samples; decrease volume?\n",
      "sox WARN dither: dither clipped 2 samples; decrease volume?\n",
      "sox WARN rate: rate clipped 2 samples; decrease volume?\n",
      "sox WARN dither: dither clipped 2 samples; decrease volume?\n",
      "sox WARN rate: rate clipped 1 samples; decrease volume?\n",
      "sox WARN dither: dither clipped 1 samples; decrease volume?\n",
      "sox WARN rate: rate clipped 1 samples; decrease volume?\n",
      "sox WARN dither: dither clipped 1 samples; decrease volume?\n",
      "sox WARN rate: rate clipped 1 samples; decrease volume?\n",
      "sox WARN rate: rate clipped 1 samples; decrease volume?\n",
      "sox WARN rate: rate clipped 2 samples; decrease volume?\n",
      "sox WARN dither: dither clipped 2 samples; decrease volume?\n",
      "sox WARN rate: rate clipped 5 samples; decrease volume?\n",
      "sox WARN dither: dither clipped 4 samples; decrease volume?\n",
      "sox WARN rate: rate clipped 1 samples; decrease volume?\n",
      "sox WARN dither: dither clipped 1 samples; decrease volume?\n",
      "sox WARN rate: rate clipped 2 samples; decrease volume?\n",
      "sox WARN dither: dither clipped 2 samples; decrease volume?\n",
      "sox WARN rate: rate clipped 7 samples; decrease volume?\n",
      "sox WARN dither: dither clipped 6 samples; decrease volume?\n",
      "sox WARN rate: rate clipped 3 samples; decrease volume?\n",
      "sox WARN dither: dither clipped 3 samples; decrease volume?\n",
      "sox WARN rate: rate clipped 5 samples; decrease volume?\n",
      "sox WARN dither: dither clipped 3 samples; decrease volume?\n",
      "sox WARN rate: rate clipped 2 samples; decrease volume?\n",
      "sox WARN dither: dither clipped 2 samples; decrease volume?\n",
      "sox WARN rate: rate clipped 1 samples; decrease volume?\n",
      "sox WARN dither: dither clipped 1 samples; decrease volume?\n",
      "sox WARN rate: rate clipped 2 samples; decrease volume?\n",
      "sox WARN dither: dither clipped 1 samples; decrease volume?\n",
      "sox WARN rate: rate clipped 2 samples; decrease volume?\n",
      "sox WARN dither: dither clipped 2 samples; decrease volume?\n",
      "sox WARN rate: rate clipped 1 samples; decrease volume?\n",
      "sox WARN rate: rate clipped 2 samples; decrease volume?\n",
      "sox WARN dither: dither clipped 2 samples; decrease volume?\n",
      "sox WARN rate: rate clipped 2 samples; decrease volume?\n",
      "sox WARN dither: dither clipped 2 samples; decrease volume?\n",
      "sox WARN rate: rate clipped 1 samples; decrease volume?\n",
      "sox WARN rate: rate clipped 1 samples; decrease volume?\n",
      "sox WARN dither: dither clipped 1 samples; decrease volume?\n",
      "sox WARN rate: rate clipped 2 samples; decrease volume?\n",
      "sox WARN dither: dither clipped 1 samples; decrease volume?\n",
      "sox WARN rate: rate clipped 4 samples; decrease volume?\n",
      "sox WARN dither: dither clipped 3 samples; decrease volume?\n",
      "sox WARN rate: rate clipped 2 samples; decrease volume?\n",
      "sox WARN dither: dither clipped 2 samples; decrease volume?\n",
      "sox WARN rate: rate clipped 3 samples; decrease volume?\n",
      "sox WARN dither: dither clipped 2 samples; decrease volume?\n",
      "sox WARN rate: rate clipped 3 samples; decrease volume?\n",
      "sox WARN dither: dither clipped 2 samples; decrease volume?\n",
      "sox WARN rate: rate clipped 3 samples; decrease volume?\n",
      "sox WARN dither: dither clipped 3 samples; decrease volume?\n",
      "sox WARN rate: rate clipped 2 samples; decrease volume?\n",
      "sox WARN dither: dither clipped 2 samples; decrease volume?\n",
      "sox WARN rate: rate clipped 3 samples; decrease volume?\n",
      "sox WARN dither: dither clipped 2 samples; decrease volume?\n",
      "sox WARN rate: rate clipped 2 samples; decrease volume?\n",
      "sox WARN dither: dither clipped 2 samples; decrease volume?\n",
      "sox WARN rate: rate clipped 1 samples; decrease volume?\n",
      "sox WARN rate: rate clipped 1 samples; decrease volume?\n",
      "sox WARN dither: dither clipped 1 samples; decrease volume?\n",
      "sox WARN rate: rate clipped 2 samples; decrease volume?\n",
      "sox WARN dither: dither clipped 1 samples; decrease volume?\n",
      "sox WARN rate: rate clipped 1 samples; decrease volume?\n",
      "sox WARN dither: dither clipped 1 samples; decrease volume?\n",
      "sox WARN rate: rate clipped 2 samples; decrease volume?\n",
      "sox WARN dither: dither clipped 2 samples; decrease volume?\n",
      "sox WARN rate: rate clipped 1 samples; decrease volume?\n",
      "sox WARN dither: dither clipped 1 samples; decrease volume?\n",
      "sox WARN rate: rate clipped 1 samples; decrease volume?\n",
      "sox WARN dither: dither clipped 1 samples; decrease volume?\n",
      "sox WARN rate: rate clipped 2 samples; decrease volume?\n",
      "sox WARN dither: dither clipped 2 samples; decrease volume?\n",
      "sox WARN rate: rate clipped 1 samples; decrease volume?\n",
      "sox WARN dither: dither clipped 1 samples; decrease volume?\n",
      "sox WARN rate: rate clipped 12 samples; decrease volume?\n",
      "sox WARN dither: dither clipped 10 samples; decrease volume?\n",
      "sox WARN rate: rate clipped 1 samples; decrease volume?\n",
      "sox WARN dither: dither clipped 1 samples; decrease volume?\n",
      "sox WARN rate: rate clipped 1 samples; decrease volume?\n",
      "sox WARN dither: dither clipped 1 samples; decrease volume?\n",
      "sox WARN rate: rate clipped 1 samples; decrease volume?\n",
      "sox WARN dither: dither clipped 2 samples; decrease volume?\n",
      "sox WARN rate: rate clipped 2 samples; decrease volume?\n",
      "sox WARN dither: dither clipped 1 samples; decrease volume?\n",
      "sox WARN rate: rate clipped 5 samples; decrease volume?\n",
      "sox WARN dither: dither clipped 5 samples; decrease volume?\n",
      "sox WARN rate: rate clipped 3 samples; decrease volume?\n",
      "sox WARN dither: dither clipped 3 samples; decrease volume?\n",
      "sox WARN rate: rate clipped 1 samples; decrease volume?\n",
      "sox WARN rate: rate clipped 7 samples; decrease volume?\n",
      "sox WARN dither: dither clipped 7 samples; decrease volume?\n",
      "sox WARN rate: rate clipped 1 samples; decrease volume?\n",
      "sox WARN dither: dither clipped 1 samples; decrease volume?\n",
      "sox WARN rate: rate clipped 1 samples; decrease volume?\n",
      "sox WARN dither: dither clipped 1 samples; decrease volume?\n",
      "sox WARN rate: rate clipped 2 samples; decrease volume?\n",
      "sox WARN dither: dither clipped 1 samples; decrease volume?\n",
      "sox WARN rate: rate clipped 2 samples; decrease volume?\n",
      "sox WARN dither: dither clipped 2 samples; decrease volume?\n",
      "sox WARN rate: rate clipped 2 samples; decrease volume?\n",
      "sox WARN dither: dither clipped 2 samples; decrease volume?\n",
      "sox WARN rate: rate clipped 1 samples; decrease volume?\n",
      "sox WARN dither: dither clipped 1 samples; decrease volume?\n",
      "sox WARN rate: rate clipped 1 samples; decrease volume?\n",
      "sox WARN dither: dither clipped 1 samples; decrease volume?\n",
      "sox WARN rate: rate clipped 2 samples; decrease volume?\n",
      "sox WARN dither: dither clipped 1 samples; decrease volume?\n",
      "sox WARN rate: rate clipped 1 samples; decrease volume?\n",
      "sox WARN dither: dither clipped 1 samples; decrease volume?\n",
      "sox WARN rate: rate clipped 1 samples; decrease volume?\n",
      "sox WARN dither: dither clipped 1 samples; decrease volume?\n",
      "sox WARN rate: rate clipped 1 samples; decrease volume?\n",
      "sox WARN dither: dither clipped 1 samples; decrease volume?\n",
      "sox WARN rate: rate clipped 2 samples; decrease volume?\n",
      "sox WARN dither: dither clipped 2 samples; decrease volume?\n",
      "sox WARN rate: rate clipped 1 samples; decrease volume?\n",
      "sox WARN dither: dither clipped 1 samples; decrease volume?\n",
      "sox WARN rate: rate clipped 1 samples; decrease volume?\n",
      "sox WARN dither: dither clipped 1 samples; decrease volume?\n",
      "sox WARN rate: rate clipped 2 samples; decrease volume?\n",
      "sox WARN dither: dither clipped 2 samples; decrease volume?\n",
      "sox WARN rate: rate clipped 2 samples; decrease volume?\n",
      "sox WARN dither: dither clipped 1 samples; decrease volume?\n",
      "sox WARN rate: rate clipped 1 samples; decrease volume?\n",
      "sox WARN dither: dither clipped 1 samples; decrease volume?\n",
      "sox WARN rate: rate clipped 1 samples; decrease volume?\n",
      "sox WARN dither: dither clipped 1 samples; decrease volume?\n",
      "sox WARN rate: rate clipped 1 samples; decrease volume?\n",
      "sox WARN dither: dither clipped 1 samples; decrease volume?\n",
      "sox WARN rate: rate clipped 1 samples; decrease volume?\n",
      "sox WARN dither: dither clipped 1 samples; decrease volume?\n",
      "sox WARN rate: rate clipped 1 samples; decrease volume?\n",
      "sox WARN dither: dither clipped 1 samples; decrease volume?\n",
      "sox WARN rate: rate clipped 1 samples; decrease volume?\n",
      "sox WARN dither: dither clipped 1 samples; decrease volume?\n",
      "sox WARN rate: rate clipped 1 samples; decrease volume?\n",
      "sox WARN dither: dither clipped 1 samples; decrease volume?\n",
      "sox WARN rate: rate clipped 1 samples; decrease volume?\n",
      "sox WARN dither: dither clipped 1 samples; decrease volume?\n",
      "sox WARN rate: rate clipped 1 samples; decrease volume?\n",
      "sox WARN dither: dither clipped 1 samples; decrease volume?\n",
      "sox WARN rate: rate clipped 1 samples; decrease volume?\n",
      "sox WARN dither: dither clipped 1 samples; decrease volume?\n",
      "sox WARN rate: rate clipped 1 samples; decrease volume?\n",
      "sox WARN dither: dither clipped 1 samples; decrease volume?\n",
      "sox WARN rate: rate clipped 3 samples; decrease volume?\n",
      "sox WARN dither: dither clipped 3 samples; decrease volume?\n",
      "sox WARN rate: rate clipped 1 samples; decrease volume?\n",
      "sox WARN dither: dither clipped 1 samples; decrease volume?\n",
      "sox WARN rate: rate clipped 1 samples; decrease volume?\n",
      "sox WARN dither: dither clipped 1 samples; decrease volume?\n",
      "sox WARN rate: rate clipped 2 samples; decrease volume?\n",
      "sox WARN dither: dither clipped 2 samples; decrease volume?\n",
      "sox WARN rate: rate clipped 3 samples; decrease volume?\n",
      "sox WARN dither: dither clipped 1 samples; decrease volume?\n",
      "sox WARN rate: rate clipped 1 samples; decrease volume?\n",
      "sox WARN dither: dither clipped 1 samples; decrease volume?\n",
      "sox WARN rate: rate clipped 1 samples; decrease volume?\n",
      "sox WARN dither: dither clipped 1 samples; decrease volume?\n",
      "sox WARN rate: rate clipped 1 samples; decrease volume?\n",
      "sox WARN dither: dither clipped 1 samples; decrease volume?\n",
      "sox WARN rate: rate clipped 1 samples; decrease volume?\n",
      "sox WARN dither: dither clipped 1 samples; decrease volume?\n",
      "sox WARN rate: rate clipped 1 samples; decrease volume?\n",
      "sox WARN dither: dither clipped 1 samples; decrease volume?\n",
      "sox WARN rate: rate clipped 1 samples; decrease volume?\n",
      "sox WARN rate: rate clipped 1 samples; decrease volume?\n",
      "sox WARN dither: dither clipped 1 samples; decrease volume?\n",
      "sox WARN rate: rate clipped 9 samples; decrease volume?\n",
      "sox WARN dither: dither clipped 8 samples; decrease volume?\n",
      "sox WARN rate: rate clipped 1 samples; decrease volume?\n",
      "sox WARN dither: dither clipped 1 samples; decrease volume?\n",
      "sox WARN rate: rate clipped 1 samples; decrease volume?\n",
      "sox WARN dither: dither clipped 1 samples; decrease volume?\n",
      "sox WARN rate: rate clipped 1 samples; decrease volume?\n",
      "sox WARN dither: dither clipped 1 samples; decrease volume?\n",
      "sox WARN rate: rate clipped 1 samples; decrease volume?\n",
      "sox WARN dither: dither clipped 1 samples; decrease volume?\n",
      "sox WARN rate: rate clipped 1 samples; decrease volume?\n",
      "sox WARN dither: dither clipped 1 samples; decrease volume?\n",
      "sox WARN rate: rate clipped 2 samples; decrease volume?\n",
      "sox WARN dither: dither clipped 2 samples; decrease volume?\n",
      "sox WARN rate: rate clipped 1 samples; decrease volume?\n",
      "sox WARN dither: dither clipped 1 samples; decrease volume?\n",
      "sox WARN rate: rate clipped 1 samples; decrease volume?\n",
      "sox WARN dither: dither clipped 1 samples; decrease volume?\n",
      "sox WARN rate: rate clipped 2 samples; decrease volume?\n",
      "sox WARN dither: dither clipped 2 samples; decrease volume?\n",
      "sox WARN rate: rate clipped 1 samples; decrease volume?\n",
      "sox WARN dither: dither clipped 1 samples; decrease volume?\n",
      "sox WARN rate: rate clipped 3 samples; decrease volume?\n",
      "sox WARN dither: dither clipped 3 samples; decrease volume?\n",
      "sox WARN rate: rate clipped 1 samples; decrease volume?\n",
      "sox WARN dither: dither clipped 1 samples; decrease volume?\n",
      "sox WARN rate: rate clipped 2 samples; decrease volume?\n",
      "sox WARN dither: dither clipped 2 samples; decrease volume?\n",
      "sox WARN rate: rate clipped 1 samples; decrease volume?\n",
      "sox WARN dither: dither clipped 1 samples; decrease volume?\n",
      "sox WARN rate: rate clipped 2 samples; decrease volume?\n",
      "sox WARN dither: dither clipped 1 samples; decrease volume?\n",
      "sox WARN rate: rate clipped 1 samples; decrease volume?\n",
      "sox WARN dither: dither clipped 1 samples; decrease volume?\n",
      "sox WARN rate: rate clipped 1 samples; decrease volume?\n",
      "sox WARN dither: dither clipped 1 samples; decrease volume?\n",
      "sox WARN rate: rate clipped 1 samples; decrease volume?\n",
      "sox WARN dither: dither clipped 1 samples; decrease volume?\n",
      "sox WARN rate: rate clipped 1 samples; decrease volume?\n",
      "sox WARN dither: dither clipped 1 samples; decrease volume?\n",
      "sox WARN rate: rate clipped 1 samples; decrease volume?\n",
      "sox WARN dither: dither clipped 1 samples; decrease volume?\n",
      "sox WARN rate: rate clipped 1 samples; decrease volume?\n",
      "sox WARN dither: dither clipped 1 samples; decrease volume?\n",
      "sox WARN rate: rate clipped 1 samples; decrease volume?\n",
      "sox WARN dither: dither clipped 1 samples; decrease volume?\n",
      "sox WARN rate: rate clipped 1 samples; decrease volume?\n",
      "sox WARN rate: rate clipped 2 samples; decrease volume?\n",
      "sox WARN dither: dither clipped 2 samples; decrease volume?\n",
      "sox WARN rate: rate clipped 1 samples; decrease volume?\n",
      "sox WARN dither: dither clipped 1 samples; decrease volume?\n",
      "sox WARN rate: rate clipped 2 samples; decrease volume?\n",
      "sox WARN dither: dither clipped 2 samples; decrease volume?\n",
      "sox WARN rate: rate clipped 1 samples; decrease volume?\n",
      "sox WARN dither: dither clipped 1 samples; decrease volume?\n",
      "sox WARN rate: rate clipped 1 samples; decrease volume?\n",
      "sox WARN rate: rate clipped 1 samples; decrease volume?\n",
      "sox WARN dither: dither clipped 1 samples; decrease volume?\n",
      "sox WARN rate: rate clipped 1 samples; decrease volume?\n",
      "sox WARN dither: dither clipped 1 samples; decrease volume?\n",
      "sox WARN rate: rate clipped 1 samples; decrease volume?\n",
      "sox WARN dither: dither clipped 1 samples; decrease volume?\n",
      "sox WARN rate: rate clipped 2 samples; decrease volume?\n",
      "sox WARN dither: dither clipped 2 samples; decrease volume?\n",
      "sox WARN rate: rate clipped 2 samples; decrease volume?\n",
      "sox WARN dither: dither clipped 2 samples; decrease volume?\n",
      "sox WARN rate: rate clipped 1 samples; decrease volume?\n",
      "sox WARN dither: dither clipped 1 samples; decrease volume?\n",
      "sox WARN rate: rate clipped 1 samples; decrease volume?\n",
      "sox WARN dither: dither clipped 1 samples; decrease volume?\n"
     ]
    }
   ],
   "source": [
    "with concurrent.futures.ProcessPoolExecutor(max_workers=multiprocessing.cpu_count()-1) as executor:\n",
    "    futures = [executor.submit(run,i) for i in df.path]"
   ]
  },
  {
   "cell_type": "code",
   "execution_count": 22,
   "id": "9e99b0d0",
   "metadata": {},
   "outputs": [],
   "source": [
    "# for i in tqdm(df.path):\n",
    "#     mp3_path = get_mp3_path(i)\n",
    "#     sr = get_wav_path(i) # 16 bit mono\n",
    "#     !sox {mp3_path} -r 16000 -c 1 -b 16 {sr}"
   ]
  },
  {
   "cell_type": "code",
   "execution_count": 23,
   "id": "8d61e3da",
   "metadata": {},
   "outputs": [
    {
     "name": "stdout",
     "output_type": "stream",
     "text": [
      "ffmpeg version 3.4.8-0ubuntu0.2 Copyright (c) 2000-2020 the FFmpeg developers\r\n",
      "  built with gcc 7 (Ubuntu 7.5.0-3ubuntu1~18.04)\r\n",
      "  configuration: --prefix=/usr --extra-version=0ubuntu0.2 --toolchain=hardened --libdir=/usr/lib/x86_64-linux-gnu --incdir=/usr/include/x86_64-linux-gnu --enable-gpl --disable-stripping --enable-avresample --enable-avisynth --enable-gnutls --enable-ladspa --enable-libass --enable-libbluray --enable-libbs2b --enable-libcaca --enable-libcdio --enable-libflite --enable-libfontconfig --enable-libfreetype --enable-libfribidi --enable-libgme --enable-libgsm --enable-libmp3lame --enable-libmysofa --enable-libopenjpeg --enable-libopenmpt --enable-libopus --enable-libpulse --enable-librubberband --enable-librsvg --enable-libshine --enable-libsnappy --enable-libsoxr --enable-libspeex --enable-libssh --enable-libtheora --enable-libtwolame --enable-libvorbis --enable-libvpx --enable-libwavpack --enable-libwebp --enable-libx265 --enable-libxml2 --enable-libxvid --enable-libzmq --enable-libzvbi --enable-omx --enable-openal --enable-opengl --enable-sdl2 --enable-libdc1394 --enable-libdrm --enable-libiec61883 --enable-chromaprint --enable-frei0r --enable-libopencv --enable-libx264 --enable-shared\r\n",
      "  libavutil      55. 78.100 / 55. 78.100\r\n",
      "  libavcodec     57.107.100 / 57.107.100\r\n",
      "  libavformat    57. 83.100 / 57. 83.100\r\n",
      "  libavdevice    57. 10.100 / 57. 10.100\r\n",
      "  libavfilter     6.107.100 /  6.107.100\r\n",
      "  libavresample   3.  7.  0 /  3.  7.  0\r\n",
      "  libswscale      4.  8.100 /  4.  8.100\r\n",
      "  libswresample   2.  9.100 /  2.  9.100\r\n",
      "  libpostproc    54.  7.100 / 54.  7.100\r\n",
      "\u001b[0;33mGuessed Channel Layout for Input Stream #0.0 : mono\r\n",
      "\u001b[0mInput #0, wav, from './cv-corpus-8.0-2022-01-19/th/wavs/common_voice_th_25695281.wav':\r\n",
      "  Duration: 00:00:03.20, bitrate: 256 kb/s\r\n",
      "    Stream #0:0: Audio: pcm_s16le ([1][0][0][0] / 0x0001), 16000 Hz, mono, s16, 256 kb/s\r\n",
      "\u001b[4;31mAt least one output file must be specified\r\n",
      "\u001b[0m"
     ]
    }
   ],
   "source": [
    "!ffmpeg -i {get_wav_path(df.path[0])}"
   ]
  },
  {
   "cell_type": "code",
   "execution_count": null,
   "id": "d98e49b0",
   "metadata": {},
   "outputs": [],
   "source": []
  }
 ],
 "metadata": {
  "kernelspec": {
   "display_name": "Python 3 (ipykernel)",
   "language": "python",
   "name": "python3"
  },
  "language_info": {
   "codemirror_mode": {
    "name": "ipython",
    "version": 3
   },
   "file_extension": ".py",
   "mimetype": "text/x-python",
   "name": "python",
   "nbconvert_exporter": "python",
   "pygments_lexer": "ipython3",
   "version": "3.8.12"
  }
 },
 "nbformat": 4,
 "nbformat_minor": 5
}
